<svg width="26" height="27" xmlns="http://www.w3.org/2000/svg">
    <path d="M7.665 13.296a6.795 6.795 0 0 0 1.514 8.135 12.697 12.697 0 0 0 8.513 3.252s-4.407 3.358-12.27-.583l-.01-.036L5.398 24c-.17-.717-1.028-5.178 2.268-10.704zm13.677-1.747s3.34 4.436-.582 12.338h-.004l-.096.026c-.712.171-5.147 1.044-10.646-2.288a6.688 6.688 0 0 0 8.096-1.514 12.823 12.823 0 0 0 3.232-8.562zM5.141 8.83s4.727-1.369 10.746 2.271a6.698 6.698 0 0 0-8.106 1.515 12.843 12.843 0 0 0-3.223 8.561s-3.3-4.436.583-12.347zm3.019-.757s4.417-3.359 12.28.582l.004.016c.082.308 1.241 4.946-2.257 10.788a6.795 6.795 0 0 0-1.504-8.144A12.716 12.716 0 0 0 8.16 8.074zM18.546.017s-.34 5.494-5.989 5.018c0 0 .369-4.911 5.99-5.018z" fill="#2B2F33" fill-rule="evenodd"/>
</svg>
